<svg width="29" height="28" viewBox="0 0 29 28" fill="none" xmlns="http://www.w3.org/2000/svg">
<path d="M8.91751 24.5117C9.50959 25.0834 10.4642 25.0834 11.0563 24.5117L21.0975 14.8167C21.2095 14.7088 21.2984 14.5806 21.359 14.4395C21.4197 14.2983 21.4509 14.147 21.4509 13.9942C21.4509 13.8414 21.4197 13.6901 21.359 13.549C21.2984 13.4079 21.2095 13.2797 21.0975 13.1717L11.0563 3.47672C10.4642 2.90506 9.50959 2.90506 8.91751 3.47672C8.32543 4.04839 8.32543 4.97006 8.91751 5.54172L17.6658 14.0001L8.90542 22.4584C8.32542 23.0184 8.32543 23.9517 8.91751 24.5117Z" fill="white"/>
</svg>
