<svg width="850" height="303" viewBox="0 0 850 303" fill="none" xmlns="http://www.w3.org/2000/svg">
<path d="M0 34H56.5L82 0L110.5 34H850V303H0V34Z" fill="#1A2B56" fill-opacity="0.06"/>
<path d="M73.272 98.376C72.248 93.8533 71.736 89.928 71.736 86.6C71.736 81.8213 72.8453 78.2373 75.064 75.848C77.2827 73.3733 80.5253 72.136 84.792 72.136V77.256C82.5733 77.256 80.952 77.8533 79.928 79.048C78.9893 80.2427 78.52 82.0347 78.52 84.424V87.368H84.92V98.376H73.272ZM90.552 98.376C89.528 93.8533 89.016 89.928 89.016 86.6C89.016 81.8213 90.1253 78.2373 92.344 75.848C94.5627 73.3733 97.8053 72.136 102.072 72.136V77.256C99.8533 77.256 98.232 77.8533 97.208 79.048C96.2693 80.2427 95.8 82.0347 95.8 84.424V87.368H102.2V98.376H90.552Z" fill="#64C6C2"/>
</svg>
