<svg width="35" height="35" viewBox="0 0 35 35" fill="none" xmlns="http://www.w3.org/2000/svg">
<path d="M12.2273 3.61556L10.9725 3.99356C9.85526 4.33048 8.85752 4.97955 8.09671 5.86437C7.3359 6.74919 6.84369 7.83294 6.678 8.98806C6.15825 12.6071 7.32025 16.8386 10.122 21.6913C12.9168 26.5318 15.9933 29.6503 19.3795 31.0153C20.4675 31.4538 21.6586 31.5707 22.8111 31.3519C23.9636 31.1332 25.029 30.5882 25.8808 29.7816L26.8293 28.8821C27.4452 28.2991 27.8285 27.5124 27.908 26.6682C27.9875 25.8239 27.7578 24.9794 27.2615 24.2918L24.8885 21.0018C24.5677 20.5576 24.1159 20.225 23.5965 20.0505C23.0771 19.876 22.5162 19.8684 21.9923 20.0288L18.403 21.1261L18.3103 21.1436C17.9148 21.2013 17.0013 20.3456 15.8638 18.3751C14.6738 16.3136 14.4288 15.1078 14.756 14.7963L16.5813 13.0936C17.2487 12.4714 17.7047 11.6558 17.8851 10.7614C18.0656 9.86689 17.9615 8.93837 17.5875 8.10606L16.429 5.53181C16.0806 4.75716 15.4625 4.13562 14.6897 3.78305C13.917 3.43049 13.0406 3.37096 12.2273 3.61556ZM14.8348 6.24931L15.9898 8.82355C16.2147 9.32271 16.2776 9.8798 16.1696 10.4165C16.0616 10.9533 15.7882 11.4427 15.3878 11.8161L13.5573 13.5206C12.3865 14.6301 12.775 16.5236 14.35 19.2501C15.8305 21.8156 17.1815 23.0826 18.634 22.8621L18.851 22.8166L22.505 21.7018C22.6797 21.6482 22.8667 21.6505 23.04 21.7086C23.2132 21.7666 23.3639 21.8775 23.471 22.0256L25.844 25.3156C26.0925 25.6593 26.2076 26.0817 26.168 26.504C26.1285 26.9264 25.9368 27.3199 25.6288 27.6116L24.6785 28.5111C24.0701 29.0868 23.3092 29.4759 22.4862 29.6319C21.6632 29.788 20.8127 29.7044 20.0358 29.3913C17.0643 28.1943 14.2555 25.3471 11.6393 20.8163C9.016 16.2751 7.95375 12.4128 8.4105 9.23656C8.52874 8.41131 8.88029 7.63702 9.42379 7.00486C9.96728 6.3727 10.6801 5.90898 11.4783 5.66831L12.733 5.29031C13.1398 5.16807 13.5772 5.19796 13.9636 5.37441C14.35 5.55086 14.659 5.86182 14.833 6.24931H14.8348Z" fill="#1A2B56"/>
</svg>
