<svg width="247" height="80" viewBox="0 0 247 80" fill="none" xmlns="http://www.w3.org/2000/svg">
<g clip-path="url(#clip0_74_147)">
<path d="M108.856 20.8318L102.423 29.5549H101.689L95.369 20.8318V35.466H91.6445V15.3799H95.9333L102.141 24.0456L108.348 15.3799H112.637V35.466H108.912V20.8318H108.856Z" fill="white"/>
<path d="M130.695 31.6212H120.368L118.675 35.4088H114.612L123.472 15.3228H127.535L136.395 35.4088H132.331L130.695 31.6212ZM125.503 19.5121L121.835 28.0631H129.171L125.503 19.5121Z" fill="white"/>
<path d="M151.687 15.2651H155.412V35.4086H153.098L142.715 21.8075V35.3512H138.99V15.2651H142.038L151.744 27.7185V15.2651H151.687Z" fill="white"/>
<path d="M174.091 20.2007C172.736 18.8808 170.761 18.1921 169.068 18.1921C164.836 18.1921 162.24 21.4633 162.24 25.5953C162.24 28.9238 164.159 32.3098 169.068 32.3098C170.648 32.3098 172.003 31.9654 173.526 30.7029V27.1448H168.448V23.7588H176.912V32.2524C174.937 34.5479 172.511 35.8679 169.012 35.8679C161.563 35.8679 158.572 30.875 158.572 25.5953C158.572 19.9138 162.071 14.6914 169.012 14.6914C171.664 14.6914 174.316 15.7244 176.348 17.7904L174.091 20.2007Z" fill="white"/>
<path d="M194.575 31.6212H184.248L182.555 35.4088H178.492L187.352 15.3228H191.415L200.275 35.4088H196.212L194.575 31.6212ZM189.384 19.5121L185.716 28.0631H193.052L189.384 19.5121Z" fill="white"/>
<path d="M215.568 15.2651H219.292V35.4086H216.979L206.595 21.8075V35.3512H202.871V15.2651H205.918L215.568 27.7759V15.2651Z" fill="white"/>
<path d="M245.194 29.555C245.194 30.7602 245.702 31.7358 247 31.7358V35.5234C245.533 35.5234 243.896 35.1791 243.276 32.8836C241.978 35.0643 239.72 35.6956 237.632 35.6956C233.287 35.6956 229.788 34.2609 229.788 29.3255C229.788 27.6038 231.03 25.7674 232.836 25.1361C231.03 24.5622 230.183 22.611 230.183 21.0615C230.183 16.7573 234.19 15.0356 237.745 15.0356C241.188 15.0356 244.968 16.413 244.968 20.7171H241.413C241.413 18.8807 239.608 18.2494 237.632 18.2494C234.698 18.2494 233.739 19.9137 233.795 21.0615C233.795 23.1275 236.278 23.7014 237.632 23.7014C240.736 23.7014 243.84 23.7014 246.887 23.7014V26.6856H245.251V29.555H245.194ZM233.4 29.3255C233.4 31.4488 235.488 32.3097 237.52 32.3097C238.874 32.3097 241.639 31.5636 241.639 29.555V26.6282C240.172 26.6282 238.761 26.6282 237.35 26.6282C234.642 26.6282 233.4 28.1203 233.4 29.3255Z" fill="white"/>
<path d="M103.552 61.6354H94.7482L93.281 64.8492H89.8387L97.4005 47.6899H100.843L108.405 64.8492H104.962L103.552 61.6354ZM99.1499 51.3054L96.0461 58.5938H102.31L99.1499 51.3054Z" fill="white"/>
<path d="M120.537 51.8792C119.973 50.9036 118.393 49.9854 116.531 49.9854C114.161 49.9854 113.032 51.0184 113.032 52.2809C113.032 53.7731 114.781 54.1748 116.813 54.4617C120.312 54.9208 123.585 55.8391 123.585 59.9137C123.585 63.7587 120.255 65.3656 116.474 65.3656C113.032 65.3656 110.38 64.2752 109.138 61.1762L111.79 59.7989C112.524 61.6927 114.499 62.4962 116.531 62.4962C118.506 62.4962 120.424 61.8075 120.424 59.9137C120.424 58.3068 118.788 57.6181 116.531 57.3885C113.088 56.9868 109.928 56.0686 109.928 52.1662C109.928 48.6655 113.371 47.1733 116.474 47.1733C119.127 47.1733 121.835 47.9194 123.077 50.5593L120.537 51.8792Z" fill="white"/>
<path d="M136.959 51.8792C136.395 50.9036 134.814 49.9854 132.952 49.9854C130.582 49.9854 129.454 51.0184 129.454 52.2809C129.454 53.7731 131.203 54.1748 133.234 54.4617C136.733 54.9208 140.006 55.8391 140.006 59.9137C140.006 63.7587 136.677 65.3656 132.896 65.3656C129.454 65.3656 126.801 64.2752 125.56 61.1762L128.212 59.7989C128.946 61.6927 130.921 62.4962 132.952 62.4962C134.927 62.4962 136.846 61.8075 136.846 59.9137C136.846 58.3068 135.21 57.6181 132.952 57.3885C129.51 56.9868 126.35 56.0686 126.35 52.1662C126.35 48.6655 129.792 47.1733 132.896 47.1733C135.548 47.1733 138.257 47.9194 139.498 50.5593L136.959 51.8792Z" fill="white"/>
<path d="M159.531 56.4129C159.475 60.8318 156.823 65.3081 150.897 65.3081C144.972 65.3081 142.207 60.9466 142.207 56.4703C142.207 51.9939 145.029 47.4028 150.897 47.4028C156.653 47.4028 159.588 51.9366 159.531 56.4129ZM145.311 56.4703C145.367 59.2823 146.891 62.3239 150.841 62.3239C154.791 62.3239 156.315 59.2823 156.371 56.4703C156.428 53.6008 154.848 50.3297 150.841 50.3297C146.891 50.3297 145.254 53.6008 145.311 56.4703Z" fill="white"/>
<path d="M177.194 62.7259C175.445 64.4476 173.244 65.251 170.761 65.251C164.497 65.251 161.845 60.8895 161.845 56.4131C161.845 51.9368 164.667 47.3457 170.761 47.3457C173.075 47.3457 175.219 48.2065 176.969 49.9856L174.824 52.0516C173.696 50.9612 172.228 50.4447 170.761 50.4447C166.698 50.4447 164.949 53.5437 164.949 56.4131C164.949 59.2826 166.585 62.2094 170.761 62.2094C172.228 62.2094 173.865 61.5781 174.994 60.4877L177.194 62.7259Z" fill="white"/>
<path d="M179.508 64.8489V47.7471H182.668V64.8489H179.508Z" fill="white"/>
<path d="M198.13 61.6354H189.327L187.86 64.8492H184.418L191.979 47.6899H195.422L202.984 64.8492H199.541L198.13 61.6354ZM193.672 51.3054L190.569 58.5938H196.832L193.672 51.3054Z" fill="white"/>
<path d="M206.539 50.6739H201.178V47.7471C206.031 47.7471 210.15 47.7471 215.06 47.7471V50.6739H209.699V64.8489H206.539V50.6739Z" fill="white"/>
<path d="M230.014 64.8492H217.374C217.374 59.1677 217.374 53.4288 217.374 47.6899H230.014V50.8463H220.534V54.8062H229.676V57.8478H220.534V61.6928H230.014V64.8492Z" fill="white"/>
<path d="M243.896 51.8792C243.332 50.9036 241.752 49.9854 239.89 49.9854C237.52 49.9854 236.391 51.0184 236.391 52.2809C236.391 53.7731 238.14 54.1748 240.172 54.4617C243.671 54.9208 246.944 55.8391 246.944 59.9137C246.944 63.7587 243.614 65.3656 239.833 65.3656C236.391 65.3656 233.739 64.2752 232.497 61.1762L235.149 59.7989C235.883 61.6927 237.858 62.4962 239.89 62.4962C241.865 62.4962 243.783 61.8075 243.783 59.9137C243.783 58.3068 242.147 57.6181 239.89 57.3885C236.447 56.9868 233.287 56.0686 233.287 52.1662C233.287 48.6655 236.729 47.1733 239.833 47.1733C242.485 47.1733 245.194 47.9194 246.436 50.5593L243.896 51.8792Z" fill="white"/>
<path d="M46.2173 11.5352C46.2173 11.5352 47.1202 11.7647 47.5716 11.9369C49.9982 12.6829 52.2554 13.6585 54.3434 14.9785C55.472 15.6671 56.8828 15.495 57.7857 14.5768L61.3409 10.9613C62.5824 9.69871 62.3566 7.51793 60.8894 6.54232C54.7384 2.35294 47.4023 0 39.5019 0C31.6016 0 24.2655 2.35294 18.1145 6.42755C16.5908 7.40316 16.3651 9.58393 17.663 10.8465L21.2182 14.462C22.1211 15.3802 23.5319 15.5524 24.6605 14.8637C26.5792 13.6585 28.6671 12.6829 30.8679 11.9943C31.4323 11.8221 31.9401 11.6499 32.5045 11.5352C32.7866 11.4778 33.1252 11.4778 33.4074 11.5352C34.536 11.8795 35.3825 13.0273 35.3825 14.2898C35.3825 14.462 35.326 14.7489 35.2696 14.9785C35.1567 15.4376 34.8746 15.8393 34.4795 16.0689C34.0281 16.3558 33.4638 16.8149 33.1252 17.1019C31.4323 18.7661 30.4165 21.0617 30.4165 23.5868C30.4165 23.6442 30.4165 23.759 30.4165 23.8164C30.5294 28.637 34.3667 32.5395 39.1069 32.6542C39.1634 32.6542 39.2762 32.6542 39.3326 32.6542C39.4455 32.6542 39.6148 32.6542 39.7277 32.6542C44.355 32.4821 48.0231 28.6944 48.2488 23.9885C48.2488 23.8737 48.2488 23.7016 48.2488 23.5868C48.2488 21.0617 47.233 18.8235 45.5965 17.1593C45.1451 16.7001 44.2986 16.0689 43.7907 15.7245C43.5086 15.495 43.2264 15.208 43.1135 14.8637C43.0571 14.6915 43.0007 14.5194 43.0007 14.2898C43.0007 12.6829 44.0164 11.3056 45.8787 11.3056C46.048 11.4778 46.2173 11.5352 46.2173 11.5352Z" fill="white"/>
<path d="M67.3226 46.657C67.3226 46.657 67.0969 47.5752 66.9276 48.0343C66.194 50.4447 65.1782 52.7976 63.8803 54.921C63.2031 56.0114 63.3724 57.5035 64.2753 58.4217L67.8305 62.0372C69.072 63.3571 71.2163 63.1276 72.1757 61.5781C76.2387 55.3227 78.6088 47.8622 78.6653 39.8277C78.7217 31.8507 76.408 24.3327 72.4578 18.0774C71.4985 16.5279 69.3541 16.2983 68.1126 17.5609L64.5574 21.1764C63.6545 22.0946 63.4853 23.5293 64.106 24.6771C65.2911 26.6283 66.194 28.8091 66.8711 31.0472C67.0404 31.6211 67.2097 32.1376 67.3226 32.7115C67.379 32.9985 67.379 33.3428 67.2662 33.6297C66.8711 34.7775 65.7989 35.6383 64.5574 35.6383C64.3882 35.6383 64.106 35.581 63.8803 35.5236C63.4288 35.4088 63.0338 35.1218 62.8081 34.7201C62.5259 34.261 62.0745 33.6871 61.7923 33.3428C60.1558 31.6211 57.8985 30.5307 55.4156 30.5307C55.3591 30.5307 55.2463 30.5307 55.1898 30.5307C50.4496 30.6455 46.6123 34.4906 46.4994 39.3112C46.4994 39.3686 46.4994 39.4834 46.4994 39.5408C46.4994 39.6556 46.4994 39.8277 46.4994 39.9425C46.6687 44.6484 50.3368 48.3787 54.9641 48.6082C55.077 48.6082 55.2463 48.6082 55.3591 48.6082C57.8421 48.6082 60.0429 47.6326 61.6795 45.9683C62.1309 45.5092 62.7516 44.6484 63.0902 44.1319C63.316 43.8449 63.5981 43.558 63.9367 43.4432C64.106 43.3858 64.2753 43.3284 64.501 43.3284C66.0811 43.3284 67.4354 44.3614 67.4354 46.2553C67.379 46.4848 67.3226 46.657 67.3226 46.657Z" fill="white"/>
<path d="M32.7866 68.465C32.7866 68.465 31.8837 68.2355 31.4323 68.0633C29.0621 67.3173 26.7485 66.2843 24.6605 64.9643C23.5883 64.2757 22.1211 64.4478 21.2182 65.366L17.663 68.9815C16.3651 70.2441 16.5908 72.4249 18.1145 73.4005C24.2655 77.5899 31.6016 80.0002 39.5019 80.0002C47.3459 80.0576 54.7384 77.7046 60.8894 73.6874C62.4131 72.7118 62.6388 70.531 61.3409 69.2685L57.7857 65.653C56.8828 64.7348 55.472 64.5626 54.3434 65.1939C52.4247 66.399 50.2803 67.3173 48.0795 68.0059C47.5152 68.1781 47.0073 68.3503 46.443 68.465C46.1608 68.5224 45.8223 68.5224 45.5401 68.4077C44.4115 68.0059 43.565 66.9155 43.565 65.653C43.565 65.4808 43.6214 65.1939 43.6779 64.9643C43.7907 64.5052 44.0729 64.1035 44.4679 63.8739C44.9194 63.587 45.4837 63.1279 45.8223 62.8409C47.5152 61.1767 48.5874 58.8811 48.5874 56.356C48.5874 56.2986 48.5874 56.1838 48.5874 56.1265C48.4745 51.3058 44.6936 47.4034 39.9534 47.2886C39.897 47.2886 39.7841 47.2886 39.7277 47.2886C39.6148 47.2886 39.4455 47.2886 39.3326 47.2886C34.7053 47.4607 31.0372 51.191 30.8115 55.8969C30.8115 56.0117 30.8115 56.1838 30.8115 56.2986C30.8115 58.8237 31.7708 61.0619 33.4074 62.7262C33.8588 63.1853 34.7053 63.8166 35.2132 64.1609C35.4953 64.3904 35.7775 64.6774 35.8903 65.0217C35.9468 65.1939 36.0032 65.366 36.0032 65.5956C36.0032 67.2025 34.9874 68.5798 33.1252 68.5798C32.9559 68.5224 32.843 68.465 32.7866 68.465Z" fill="#64C6C2"/>
<path d="M11.2863 32.9987C11.2863 32.9987 11.512 32.0805 11.6249 31.6214C12.302 29.1536 13.3178 26.8581 14.5593 24.7347C15.2365 23.5869 15.0107 22.1522 14.1078 21.234L10.4962 17.6185C9.19831 16.3559 7.11035 16.5855 6.15102 18.135C2.14439 24.3904 -0.112863 31.9083 -0.0564313 39.9427C4.84288e-08 47.9198 2.37012 55.3803 6.43317 61.5783C7.44894 63.0704 9.5369 63.3 10.7784 62.0374L14.3336 58.3645C15.2365 57.4463 15.4058 56.0116 14.7286 54.8638C13.5435 52.9126 12.5842 50.7892 11.8506 48.5511C11.6813 47.9772 11.512 47.4607 11.3991 46.8868C11.3427 46.5998 11.3427 46.2555 11.3991 45.9686C11.7377 44.7634 12.8099 43.9026 14.1078 43.9026C14.2771 43.9026 14.5593 43.9599 14.785 44.0173C15.2365 44.1321 15.6315 44.4191 15.8572 44.8208C16.1394 45.2799 16.5908 45.8538 16.873 46.1407C18.5095 47.8624 20.7667 48.8954 23.3061 48.838C23.3626 48.838 23.4754 48.838 23.5319 48.838C28.2721 48.6658 32.053 44.7634 32.1659 39.9427C32.1659 39.8853 32.1659 39.7706 32.1659 39.7132C32.1659 39.5984 32.1659 39.4262 32.1659 39.3115C31.9401 34.6056 28.2157 30.8753 23.5883 30.7605C23.4754 30.7605 23.3061 30.7605 23.1933 30.7605C20.7103 30.7605 18.5095 31.7935 16.873 33.4578C16.4215 33.9169 15.8572 34.7777 15.5186 35.2942C15.2929 35.5812 15.0107 35.8681 14.7286 35.9829C14.5593 36.0403 14.39 36.0977 14.1643 36.0977C12.5842 36.0977 11.1734 35.1221 11.2298 33.1709C11.2298 33.1709 11.2863 33.0561 11.2863 32.9987Z" fill="white"/>
</g>
<defs>
<clipPath id="clip0_74_147">
<rect width="247" height="80" fill="white"/>
</clipPath>
</defs>
</svg>
