<svg width="58" height="58" viewBox="0 0 58 58" fill="none" xmlns="http://www.w3.org/2000/svg">
<path d="M33.6806 8.36298C33.6806 8.36298 34.3386 8.52941 34.6676 8.65423C36.4359 9.19512 38.0809 9.90244 39.6025 10.8594C40.4249 11.3587 41.453 11.2339 42.111 10.5681L44.7018 7.94692C45.6066 7.03156 45.4421 5.4505 44.3729 4.74319C39.8903 1.70588 34.5442 0 28.7868 0C23.0295 0 17.6833 1.70588 13.2008 4.65997C12.0905 5.36729 11.926 6.94835 12.8718 7.8637L15.4626 10.4849C16.1206 11.1506 17.1487 11.2755 17.9712 10.7762C19.3694 9.90244 20.891 9.19512 22.4949 8.69584C22.9061 8.57102 23.2762 8.4462 23.6875 8.36298C23.8931 8.32138 24.1398 8.32138 24.3454 8.36298C25.1679 8.61263 25.7848 9.44476 25.7848 10.3601C25.7848 10.4849 25.7437 10.693 25.7025 10.8594C25.6203 11.1923 25.4147 11.4835 25.1268 11.6499C24.7978 11.858 24.3866 12.1908 24.1398 12.3989C22.9061 13.6055 22.1659 15.2697 22.1659 17.1004C22.1659 17.142 22.1659 17.2253 22.1659 17.2669C22.2481 20.7618 25.0445 23.5911 28.499 23.6743C28.5401 23.6743 28.6223 23.6743 28.6635 23.6743C28.7457 23.6743 28.8691 23.6743 28.9513 23.6743C32.3235 23.5495 34.9966 20.8034 35.1611 17.3917C35.1611 17.3085 35.1611 17.1836 35.1611 17.1004C35.1611 15.2697 34.4208 13.6471 33.2282 12.4405C32.8992 12.1076 32.2824 11.6499 31.9123 11.4003C31.7066 11.2339 31.501 11.0258 31.4188 10.7762C31.3777 10.6514 31.3365 10.5265 31.3365 10.3601C31.3365 9.19512 32.0768 8.19656 33.4339 8.19656C33.5572 8.32138 33.6806 8.36298 33.6806 8.36298Z" fill="#2B2D7E"/>
<path d="M49.061 33.8264C49.061 33.8264 48.8965 34.4921 48.7731 34.825C48.2385 36.5725 47.4983 38.2783 46.5524 39.8178C46.0589 40.6083 46.1823 41.6901 46.8403 42.3558L49.4311 44.977C50.3358 45.934 51.8986 45.7676 52.5977 44.6442C55.5586 40.109 57.2858 34.7001 57.3269 28.8752C57.3681 23.0918 55.682 17.6413 52.8033 13.1062C52.1042 11.9828 50.5415 11.8164 49.6367 12.7317L47.0459 15.3529C46.3879 16.0186 46.2646 17.0588 46.7169 17.891C47.5805 19.3056 48.2385 20.8867 48.732 22.5093C48.8554 22.9254 48.9788 23.2999 49.061 23.7159C49.1021 23.924 49.1021 24.1736 49.0199 24.3816C48.732 25.2138 47.9506 25.8379 47.0459 25.8379C46.9225 25.8379 46.7169 25.7963 46.5524 25.7547C46.2234 25.6714 45.9356 25.4634 45.7711 25.1722C45.5655 24.8393 45.2365 24.4232 45.0308 24.1736C43.8382 22.9254 42.1933 22.1349 40.3838 22.1349C40.3427 22.1349 40.2605 22.1349 40.2193 22.1349C36.7649 22.2181 33.9685 25.0057 33.8862 28.5007C33.8862 28.5423 33.8862 28.6255 33.8862 28.6671C33.8862 28.7504 33.8862 28.8752 33.8862 28.9584C34.0096 32.3702 36.6827 35.0746 40.0548 35.241C40.1371 35.241 40.2604 35.241 40.3427 35.241C42.1522 35.241 43.756 34.5337 44.9486 33.3271C45.2776 32.9943 45.73 32.3702 45.9767 31.9957C46.1412 31.7877 46.3468 31.5796 46.5936 31.4964C46.7169 31.4548 46.8403 31.4132 47.0048 31.4132C48.1563 31.4132 49.1432 32.1621 49.1432 33.5351C49.1021 33.7016 49.061 33.8264 49.061 33.8264Z" fill="#2B2D7E"/>
<path d="M23.8931 49.637C23.8931 49.637 23.2351 49.4706 22.9061 49.3458C21.1789 48.8049 19.4928 48.056 17.9712 47.099C17.1899 46.5997 16.1206 46.7245 15.4626 47.3902L12.8718 50.0115C11.926 50.9268 12.0905 52.5079 13.2008 53.2152C17.6833 56.2525 23.0295 58 28.7868 58C34.5031 58.0416 39.8903 56.3357 44.3729 53.4232C45.4832 52.7159 45.6477 51.1349 44.7018 50.2195L42.111 47.5983C41.453 46.9326 40.4249 46.8077 39.6025 47.2654C38.2042 48.1392 36.6415 48.8049 35.0377 49.3042C34.6265 49.429 34.2563 49.5538 33.8451 49.637C33.6395 49.6786 33.3927 49.6786 33.1871 49.5954C32.3646 49.3042 31.7478 48.5136 31.7478 47.5983C31.7478 47.4735 31.7889 47.2654 31.83 47.099C31.9123 46.7661 32.1179 46.4749 32.4058 46.3085C32.7347 46.1004 33.146 45.7676 33.3927 45.5595C34.6265 44.3529 35.4078 42.6887 35.4078 40.858C35.4078 40.8164 35.4078 40.7331 35.4078 40.6915C35.3256 37.1966 32.5703 34.3673 29.1158 34.2841C29.0747 34.2841 28.9925 34.2841 28.9513 34.2841C28.8691 34.2841 28.7457 34.2841 28.6635 34.2841C25.2913 34.4089 22.6182 37.1133 22.4537 40.5251C22.4537 40.6083 22.4537 40.7331 22.4537 40.8164C22.4537 42.6471 23.1528 44.2697 24.3454 45.4763C24.6744 45.8092 25.2913 46.2669 25.6614 46.5165C25.867 46.6829 26.0727 46.891 26.1549 47.1406C26.196 47.2654 26.2371 47.3902 26.2371 47.5567C26.2371 48.7217 25.4969 49.7202 24.1398 49.7202C24.0164 49.6786 23.9342 49.637 23.8931 49.637Z" fill="#64C6C2"/>
<path d="M8.22481 23.924C8.22481 23.924 8.38931 23.2583 8.47155 22.9254C8.96504 21.1363 9.70528 19.472 10.61 17.9326C11.1035 17.1004 10.939 16.0603 10.281 15.3945L7.64907 12.7733C6.70322 11.858 5.18163 12.0244 4.48252 13.1478C1.56271 17.6829 -0.0822488 23.1334 -0.0411247 28.9584C-6.74278e-07 34.7418 1.72721 40.1507 4.68814 44.6442C5.42837 45.726 6.94997 45.8924 7.85469 44.977L10.4455 42.3142C11.1035 41.6485 11.2269 40.6083 10.7334 39.7762C9.86977 38.3616 9.17066 36.8221 8.63605 35.1994C8.51268 34.7834 8.38931 34.4089 8.30706 33.9928C8.26593 33.7848 8.26593 33.5352 8.30706 33.3271C8.5538 32.4534 9.33516 31.8293 10.281 31.8293C10.4044 31.8293 10.61 31.8709 10.7745 31.9125C11.1035 31.9957 11.3914 32.2037 11.5559 32.495C11.7615 32.8278 12.0905 33.2439 12.2961 33.4519C13.4887 34.7001 15.1337 35.4491 16.9842 35.4075C17.0254 35.4075 17.1076 35.4075 17.1487 35.4075C20.6031 35.2826 23.3585 32.4534 23.4407 28.9584C23.4407 28.9168 23.4407 28.8336 23.4407 28.792C23.4407 28.7088 23.4407 28.5839 23.4407 28.5007C23.2762 25.089 20.562 22.3845 17.1899 22.3013C17.1076 22.3013 16.9842 22.3013 16.902 22.3013C15.0925 22.3013 13.4887 23.0502 12.2961 24.2568C11.9671 24.5897 11.5559 25.2138 11.3091 25.5882C11.1446 25.7963 10.939 26.0043 10.7334 26.0875C10.61 26.1291 10.4866 26.1707 10.3221 26.1707C9.17066 26.1707 8.14256 25.4634 8.18369 24.0488C8.18369 24.0488 8.22481 23.9656 8.22481 23.924Z" fill="#2B2D7E"/>
</svg>
