<svg width="20" height="20" viewBox="0 0 20 20" fill="none" xmlns="http://www.w3.org/2000/svg">
<path d="M14.1666 10.9417V14.0225H12.3808V11.1475C12.3808 10.4258 12.1224 9.93334 11.4758 9.93334C10.9824 9.93334 10.6883 10.265 10.5591 10.5867C10.5124 10.7017 10.4999 10.8617 10.4999 11.0217V14.0225H8.71325C8.71325 14.0225 8.73742 9.15417 8.71325 8.65001H10.4999V9.41084L10.4883 9.42834H10.4999V9.41084C10.7374 9.04417 11.1608 8.52334 12.1099 8.52334C13.2849 8.52334 14.1666 9.29167 14.1666 10.9417ZM6.84409 6.05917C6.23325 6.05917 5.83325 6.46084 5.83325 6.98751C5.83325 7.50417 6.22159 7.91667 6.82075 7.91667H6.83242C7.45575 7.91667 7.84325 7.50334 7.84325 6.98751C7.83159 6.46084 7.45575 6.05917 6.84409 6.05917ZM5.93909 14.0225H7.72575V8.65001H5.93909V14.0225Z" fill="white"/>
<path d="M4.99996 3.33334C4.55793 3.33334 4.13401 3.50893 3.82145 3.82149C3.50889 4.13405 3.33329 4.55798 3.33329 5.00001V15C3.33329 15.442 3.50889 15.866 3.82145 16.1785C4.13401 16.4911 4.55793 16.6667 4.99996 16.6667H15C15.442 16.6667 15.8659 16.4911 16.1785 16.1785C16.491 15.866 16.6666 15.442 16.6666 15V5.00001C16.6666 4.55798 16.491 4.13405 16.1785 3.82149C15.8659 3.50893 15.442 3.33334 15 3.33334H4.99996ZM4.99996 1.66667H15C15.884 1.66667 16.7319 2.01786 17.357 2.64298C17.9821 3.2681 18.3333 4.11595 18.3333 5.00001V15C18.3333 15.8841 17.9821 16.7319 17.357 17.357C16.7319 17.9821 15.884 18.3333 15 18.3333H4.99996C4.1159 18.3333 3.26806 17.9821 2.64294 17.357C2.01782 16.7319 1.66663 15.8841 1.66663 15V5.00001C1.66663 4.11595 2.01782 3.2681 2.64294 2.64298C3.26806 2.01786 4.1159 1.66667 4.99996 1.66667Z" fill="white"/>
</svg>
