<svg width="123" height="31" viewBox="0 0 123 31" fill="none" xmlns="http://www.w3.org/2000/svg">
<g clip-path="url(#clip0_78_458)">
<path d="M48.541 18.157L55.3281 26.5714H49.9688L43.9285 18.8436V26.5714H39.5356V4.42864H43.9285V17.4486L49.5075 11.0714H55.1083L48.541 18.157ZM30.9696 10.6286C30.0078 10.6432 29.0637 10.8925 28.2184 11.3552C27.373 11.818 26.6515 12.4804 26.1156 13.2857V11.0714H21.9644V26.5714H26.3571V19.3307C26.2994 18.8051 26.3496 18.2732 26.5047 17.7681C26.6597 17.263 26.9162 16.7954 27.2582 16.3945C27.6002 15.9936 28.0204 15.668 28.4926 15.4379C28.9649 15.2078 29.479 15.0782 30.0031 15.057C32.551 15.057 32.9465 17.5814 32.9465 19.3307V26.5714H37.3394V18.3564C37.3394 13.485 35.7358 10.6286 31.0575 10.6286H30.9696ZM70.2856 19.1757C70.3024 19.5002 70.3024 19.8255 70.2856 20.15H58.7544V20.305C58.9416 21.2284 59.449 22.0543 60.1856 22.6346C60.9223 23.2149 61.84 23.5115 62.774 23.4714C63.5149 23.5038 64.2547 23.3853 64.9492 23.1228C65.6436 22.8603 66.2783 22.4592 66.8154 21.9436L69.7367 24.158C68.8108 25.1105 67.6972 25.8568 66.4676 26.3487C65.2381 26.8407 63.9199 27.0675 62.5981 27.0143C61.5035 27.0841 60.4067 26.9162 59.3819 26.522C58.3572 26.1278 57.4282 25.5165 56.6579 24.7294C55.8876 23.9422 55.2937 22.9976 54.9165 21.9593C54.5393 20.921 54.3876 19.8132 54.4715 18.7107C54.449 17.6223 54.6491 16.5409 55.0593 15.5339C55.4696 14.527 56.0812 13.6159 56.856 12.8577C57.6308 12.0994 58.5522 11.5102 59.5628 11.1267C60.5734 10.7432 61.6515 10.5737 62.73 10.6286C66.8594 10.6286 70.2856 13.5736 70.2856 19.1757ZM66.2004 17.2714C66.1843 16.8328 66.0797 16.4021 65.8931 16.0055C65.7065 15.609 65.4417 15.2549 65.115 14.9649C64.7882 14.6748 64.4063 14.4549 63.9925 14.3185C63.5788 14.1821 63.1417 14.132 62.7081 14.1714C60.7767 13.9609 59.0275 15.3324 58.7544 17.2714H66.2004ZM4.39293 4.42864H0V26.5714H13.1785V22.1432H4.39293V4.42864ZM83.4644 4.42864H87.8571V26.5714H83.7058V25.0214C83.1787 25.6761 82.5069 26.1973 81.7441 26.5434C80.9813 26.8895 80.1488 27.0507 79.3131 27.0143C78.2922 26.9879 77.2874 26.7513 76.3605 26.3189C75.4336 25.8866 74.6042 25.2678 73.9232 24.5004C73.2423 23.7331 72.7243 22.8334 72.4009 21.8568C72.0775 20.8802 71.9557 19.8472 72.0429 18.8214C71.9392 17.7941 72.0488 16.7563 72.3646 15.774C72.6804 14.7917 73.1956 13.8865 73.8773 13.1159C74.5591 12.3452 75.3925 11.7261 76.3246 11.2979C77.2566 10.8697 78.2669 10.6418 79.291 10.6286C80.0539 10.5949 80.8158 10.7146 81.5323 10.9808C82.2488 11.2469 82.9055 11.6541 83.4644 12.1786V4.42864ZM83.7937 18.8214C83.8628 18.31 83.8223 17.7898 83.675 17.2956C83.5277 16.8014 83.277 16.3448 82.9398 15.9565C82.6026 15.5683 82.1867 15.2575 81.7202 15.045C81.2537 14.8326 80.7475 14.7235 80.2356 14.725C78.1343 14.8788 76.542 16.7005 76.6554 18.8214C76.542 20.9422 78.1343 22.7642 80.2356 22.918C80.7475 22.9195 81.2538 22.8104 81.7203 22.5979C82.1868 22.3854 82.6027 22.0746 82.9399 21.6864C83.2771 21.2981 83.5278 20.8415 83.6751 20.3472C83.8224 19.853 83.8629 19.3327 83.7937 18.8214ZM17.5715 3.98568C16.8651 3.99577 16.1888 4.27571 15.6792 4.76897C15.1695 5.26223 14.8646 5.93206 14.8258 6.6432C14.8258 8.17165 16.0551 9.41092 17.5715 9.41092C19.0878 9.41092 20.3166 8.17141 20.3166 6.6432C20.2778 5.93214 19.9729 5.26241 19.4633 4.76921C18.9537 4.276 18.2775 3.99607 17.5712 3.98592L17.5715 3.98568ZM15.375 26.5714H19.7679V11.0714H15.375V26.5714ZM123 2.21432V28.7857C123 29.373 122.769 29.9362 122.357 30.3514C121.945 30.7667 121.386 31 120.804 31H94.4465C93.8639 31 93.3052 30.7667 92.8933 30.3514C92.4814 29.9362 92.25 29.373 92.25 28.7857V2.21432C92.25 1.62705 92.4814 1.06383 92.8933 0.648559C93.3052 0.233294 93.8639 0 94.4465 0L120.804 0C121.386 0 121.945 0.233294 122.357 0.648559C122.769 1.06383 123 1.62705 123 2.21432ZM101.036 11.0714H96.6429V26.5714H101.036V11.0714ZM101.585 6.64296C101.585 5.11427 100.356 3.875 98.8394 3.875C97.323 3.875 96.0938 5.11427 96.0938 6.64296C96.0938 8.17141 97.323 9.41068 98.8394 9.41068C100.356 9.41068 101.585 8.17141 101.585 6.64296ZM118.607 18.3564C118.607 13.485 117.004 10.6286 112.325 10.6286C111.349 10.6287 110.387 10.8711 109.525 11.3345C108.663 11.7979 107.928 12.468 107.383 13.2857V11.0714H103.232V26.5714H107.625V19.3307C107.567 18.8051 107.618 18.2732 107.773 17.7681C107.928 17.263 108.184 16.7954 108.526 16.3945C108.868 15.9936 109.288 15.668 109.761 15.4379C110.233 15.2078 110.747 15.0782 111.271 15.057C113.819 15.057 114.214 17.5814 114.214 19.3307V26.5714H118.607V18.3564Z" fill="#0A66C2"/>
</g>
<defs>
<clipPath id="clip0_78_458">
<rect width="123" height="31" fill="white"/>
</clipPath>
</defs>
</svg>
