<svg width="180" height="58" viewBox="0 0 180 58" fill="none" xmlns="http://www.w3.org/2000/svg">
<g clip-path="url(#clip0_103_26)">
<path d="M79.3282 15.1033L74.6401 21.4276H74.1055L69.4996 15.1033V25.7131H66.7854V11.1507H69.9108L74.4345 17.4333L78.9581 11.1507H82.0836V25.7131H79.3694V15.1033H79.3282Z" fill="#1A2B56"/>
<path d="M95.2433 22.9254H87.7176L86.4839 25.6715H83.5229L89.9794 11.109H92.9404L99.3968 25.6715H96.4359L95.2433 22.9254ZM91.4599 14.1463L88.7868 20.3458H94.133L91.4599 14.1463Z" fill="#1A2B56"/>
<path d="M110.541 11.0674H113.256V25.6714H111.57L104.003 15.8106V25.6298H101.289V11.0674H103.509L110.583 20.0961V11.0674H110.541Z" fill="#1A2B56"/>
<path d="M126.868 14.6456C125.881 13.6887 124.441 13.1894 123.208 13.1894C120.123 13.1894 118.232 15.561 118.232 18.5567C118.232 20.9699 119.63 23.4247 123.208 23.4247C124.359 23.4247 125.346 23.175 126.456 22.2597V19.6801H122.755V17.2253H128.924V23.3831C127.485 25.0474 125.716 26.0043 123.167 26.0043C117.738 26.0043 115.559 22.3845 115.559 18.5567C115.559 14.4376 118.108 10.6514 123.167 10.6514C125.099 10.6514 127.032 11.4003 128.513 12.8981L126.868 14.6456Z" fill="#1A2B56"/>
<path d="M141.796 22.9254H134.27L133.036 25.6715H130.075L136.532 11.109H139.493L145.949 25.6715H142.988L141.796 22.9254ZM138.012 14.1463L135.339 20.3458H140.685L138.012 14.1463Z" fill="#1A2B56"/>
<path d="M157.094 11.0674H159.808V25.6714H158.122L150.555 15.8106V25.6298H147.841V11.0674H150.062L157.094 20.1377V11.0674Z" fill="#1A2B56"/>
<path d="M178.684 21.4276C178.684 22.3013 179.054 23.0086 180 23.0086V25.7547C178.931 25.7547 177.738 25.505 177.286 23.8408C176.34 25.4218 174.695 25.8795 173.173 25.8795C170.007 25.8795 167.457 24.8393 167.457 21.2611C167.457 20.0129 168.362 18.6815 169.678 18.2238C168.362 17.8078 167.745 16.3931 167.745 15.2697C167.745 12.1492 170.665 10.901 173.256 10.901C175.764 10.901 178.519 11.8996 178.519 15.0201H175.929C175.929 13.6887 174.613 13.231 173.173 13.231C171.035 13.231 170.336 14.4376 170.377 15.2697C170.377 16.7676 172.186 17.1837 173.173 17.1837C175.435 17.1837 177.697 17.1837 179.918 17.1837V19.3472H178.725V21.4276H178.684ZM170.089 21.2611C170.089 22.8006 171.611 23.4247 173.091 23.4247C174.078 23.4247 176.093 22.8838 176.093 21.4276V19.3056C175.024 19.3056 173.996 19.3056 172.968 19.3056C170.994 19.3056 170.089 20.3874 170.089 21.2611Z" fill="#1A2B56"/>
<path d="M75.4626 44.6858H69.0473L67.9781 47.0158H65.4695L70.9801 34.5753H73.4887L78.9993 47.0158H76.4907L75.4626 44.6858ZM72.255 37.1966L69.9931 42.4806H74.5579L72.255 37.1966Z" fill="#1A2B56"/>
<path d="M87.841 37.6126C87.4298 36.9053 86.2783 36.2396 84.9212 36.2396C83.194 36.2396 82.3715 36.9885 82.3715 37.9039C82.3715 38.9857 83.6463 39.2769 85.1268 39.4849C87.6765 39.8178 90.0617 40.4835 90.0617 43.4376C90.0617 46.2253 87.6354 47.3903 84.8801 47.3903C82.3715 47.3903 80.4387 46.5997 79.5339 44.3529L81.4668 43.3544C82.0014 44.7274 83.4407 45.3099 84.9212 45.3099C86.3605 45.3099 87.7587 44.8106 87.7587 43.4376C87.7587 42.2726 86.5662 41.7733 84.9212 41.6069C82.4126 41.3156 80.1097 40.6499 80.1097 37.8207C80.1097 35.2826 82.6182 34.2009 84.8801 34.2009C86.8129 34.2009 88.7869 34.7418 89.6916 36.6557L87.841 37.6126Z" fill="#1A2B56"/>
<path d="M99.808 37.6126C99.3968 36.9053 98.2453 36.2396 96.8882 36.2396C95.161 36.2396 94.3385 36.9885 94.3385 37.9039C94.3385 38.9857 95.6134 39.2769 97.0939 39.4849C99.6435 39.8178 102.029 40.4835 102.029 43.4376C102.029 46.2253 99.6024 47.3903 96.8471 47.3903C94.3385 47.3903 92.4057 46.5997 91.501 44.3529L93.4338 43.3544C93.9684 44.7274 95.4078 45.3099 96.8882 45.3099C98.3276 45.3099 99.7258 44.8106 99.7258 43.4376C99.7258 42.2726 98.5332 41.7733 96.8882 41.6069C94.3797 41.3156 92.0767 40.6499 92.0767 37.8207C92.0767 35.2826 94.5853 34.2009 96.8471 34.2009C98.7799 34.2009 100.754 34.7418 101.659 36.6557L99.808 37.6126Z" fill="#1A2B56"/>
<path d="M116.258 40.8996C116.217 44.1033 114.284 47.3486 109.966 47.3486C105.648 47.3486 103.633 44.1865 103.633 40.9412C103.633 37.6958 105.689 34.3673 109.966 34.3673C114.16 34.3673 116.299 37.6542 116.258 40.8996ZM105.894 40.9412C105.936 42.9799 107.046 45.1851 109.925 45.1851C112.803 45.1851 113.914 42.9799 113.955 40.9412C113.996 38.8608 112.844 36.4892 109.925 36.4892C107.046 36.4892 105.853 38.8608 105.894 40.9412Z" fill="#1A2B56"/>
<path d="M129.13 45.4763C127.855 46.7245 126.251 47.307 124.441 47.307C119.877 47.307 117.944 44.1449 117.944 40.8996C117.944 37.6542 120 34.3257 124.441 34.3257C126.128 34.3257 127.69 34.9498 128.965 36.2396L127.402 37.7375C126.58 36.9469 125.511 36.5725 124.441 36.5725C121.481 36.5725 120.206 38.8192 120.206 40.8996C120.206 42.9799 121.398 45.1019 124.441 45.1019C125.511 45.1019 126.703 44.6442 127.526 43.8537L129.13 45.4763Z" fill="#1A2B56"/>
<path d="M130.816 47.0158V34.6169H133.119V47.0158H130.816Z" fill="#1A2B56"/>
<path d="M144.386 44.6858H137.971L136.902 47.0158H134.393L139.904 34.5753H142.413L147.923 47.0158H145.415L144.386 44.6858ZM141.138 37.1966L138.876 42.4806H143.441L141.138 37.1966Z" fill="#1A2B56"/>
<path d="M150.514 36.7389H146.607V34.6169C150.144 34.6169 153.146 34.6169 156.724 34.6169V36.7389H152.817V47.0158H150.514V36.7389Z" fill="#1A2B56"/>
<path d="M167.622 47.0158H158.41C158.41 42.8967 158.41 38.736 158.41 34.5753H167.622V36.8637H160.713V39.7346H167.375V41.9397H160.713V44.7274H167.622V47.0158Z" fill="#1A2B56"/>
<path d="M177.738 37.6126C177.327 36.9053 176.175 36.2396 174.818 36.2396C173.091 36.2396 172.269 36.9885 172.269 37.9039C172.269 38.9857 173.544 39.2769 175.024 39.4849C177.574 39.8178 179.959 40.4835 179.959 43.4376C179.959 46.2253 177.533 47.3903 174.777 47.3903C172.269 47.3903 170.336 46.5997 169.431 44.3529L171.364 43.3544C171.899 44.7274 173.338 45.3099 174.818 45.3099C176.258 45.3099 177.656 44.8106 177.656 43.4376C177.656 42.2726 176.463 41.7733 174.818 41.6069C172.31 41.3156 170.007 40.6499 170.007 37.8207C170.007 35.2826 172.515 34.2009 174.777 34.2009C176.71 34.2009 178.684 34.7418 179.589 36.6557L177.738 37.6126Z" fill="#1A2B56"/>
<path d="M33.6806 8.36298C33.6806 8.36298 34.3386 8.52941 34.6675 8.65423C36.4359 9.19512 38.0808 9.90244 39.6024 10.8594C40.4249 11.3587 41.453 11.2339 42.111 10.5681L44.7018 7.94692C45.6065 7.03156 45.442 5.4505 44.3728 4.74319C39.8903 1.70588 34.5442 0 28.7868 0C23.0294 0 17.6833 1.70588 13.2008 4.65997C12.0904 5.36729 11.9259 6.94835 12.8718 7.8637L15.4626 10.4849C16.1206 11.1506 17.1487 11.2755 17.9712 10.7762C19.3694 9.90244 20.891 9.19512 22.4948 8.69584C22.9061 8.57102 23.2762 8.4462 23.6874 8.36298C23.893 8.32138 24.1398 8.32138 24.3454 8.36298C25.1679 8.61263 25.7848 9.44476 25.7848 10.3601C25.7848 10.4849 25.7436 10.693 25.7025 10.8594C25.6203 11.1923 25.4146 11.4835 25.1268 11.6499C24.7978 11.858 24.3865 12.1908 24.1398 12.3989C22.9061 13.6055 22.1658 15.2697 22.1658 17.1004C22.1658 17.142 22.1658 17.2253 22.1658 17.2669C22.2481 20.7618 25.0445 23.5911 28.4989 23.6743C28.5401 23.6743 28.6223 23.6743 28.6634 23.6743C28.7457 23.6743 28.8691 23.6743 28.9513 23.6743C32.3235 23.5495 34.9965 20.8034 35.161 17.3917C35.161 17.3085 35.161 17.1836 35.161 17.1004C35.161 15.2697 34.4208 13.6471 33.2282 12.4405C32.8992 12.1076 32.2824 11.6499 31.9122 11.4003C31.7066 11.2339 31.501 11.0258 31.4187 10.7762C31.3776 10.6514 31.3365 10.5265 31.3365 10.3601C31.3365 9.19512 32.0767 8.19656 33.4338 8.19656C33.5572 8.32138 33.6806 8.36298 33.6806 8.36298Z" fill="#2B2D7E"/>
<path d="M49.061 33.8264C49.061 33.8264 48.8965 34.4921 48.7731 34.825C48.2385 36.5725 47.4983 38.2783 46.5524 39.8178C46.0589 40.6083 46.1823 41.6901 46.8403 42.3558L49.4311 44.977C50.3358 45.934 51.8986 45.7676 52.5977 44.6442C55.5586 40.109 57.2858 34.7001 57.3269 28.8752C57.3681 23.0918 55.682 17.6413 52.8033 13.1062C52.1042 11.9828 50.5415 11.8164 49.6367 12.7317L47.0459 15.3529C46.3879 16.0186 46.2646 17.0588 46.7169 17.891C47.5805 19.3056 48.2385 20.8867 48.732 22.5093C48.8554 22.9254 48.9788 23.2999 49.061 23.7159C49.1021 23.924 49.1021 24.1736 49.0199 24.3816C48.732 25.2138 47.9507 25.8379 47.0459 25.8379C46.9226 25.8379 46.7169 25.7963 46.5524 25.7547C46.2234 25.6714 45.9356 25.4634 45.7711 25.1722C45.5655 24.8393 45.2365 24.4232 45.0308 24.1736C43.8383 22.9254 42.1933 22.1349 40.3838 22.1349C40.3427 22.1349 40.2605 22.1349 40.2193 22.1349C36.7649 22.2181 33.9685 25.0057 33.8862 28.5007C33.8862 28.5423 33.8862 28.6255 33.8862 28.6671C33.8862 28.7504 33.8862 28.8752 33.8862 28.9584C34.0096 32.3702 36.6827 35.0746 40.0548 35.241C40.1371 35.241 40.2605 35.241 40.3427 35.241C42.1522 35.241 43.756 34.5337 44.9486 33.3271C45.2776 32.9943 45.73 32.3702 45.9767 31.9957C46.1412 31.7877 46.3468 31.5796 46.5936 31.4964C46.7169 31.4548 46.8403 31.4132 47.0048 31.4132C48.1563 31.4132 49.1433 32.1621 49.1433 33.5351C49.1021 33.7016 49.061 33.8264 49.061 33.8264Z" fill="#2B2D7E"/>
<path d="M23.893 49.637C23.893 49.637 23.2351 49.4706 22.9061 49.3458C21.1789 48.8049 19.4928 48.056 17.9712 47.099C17.1898 46.5997 16.1206 46.7245 15.4626 47.3902L12.8718 50.0115C11.9259 50.9268 12.0904 52.5079 13.2008 53.2152C17.6833 56.2525 23.0294 58 28.7868 58C34.5031 58.0416 39.8903 56.3357 44.3728 53.4232C45.4832 52.7159 45.6477 51.1349 44.7018 50.2195L42.111 47.5983C41.453 46.9326 40.4249 46.8077 39.6024 47.2654C38.2042 48.1392 36.6415 48.8049 35.0377 49.3042C34.6264 49.429 34.2563 49.5538 33.8451 49.637C33.6394 49.6786 33.3927 49.6786 33.1871 49.5954C32.3646 49.3042 31.7477 48.5136 31.7477 47.5983C31.7477 47.4735 31.7889 47.2654 31.83 47.099C31.9122 46.7661 32.1179 46.4749 32.4057 46.3085C32.7347 46.1004 33.146 45.7676 33.3927 45.5595C34.6264 44.3529 35.4078 42.6887 35.4078 40.858C35.4078 40.8164 35.4078 40.7331 35.4078 40.6915C35.3255 37.1966 32.5702 34.3673 29.1158 34.2841C29.0747 34.2841 28.9924 34.2841 28.9513 34.2841C28.8691 34.2841 28.7457 34.2841 28.6634 34.2841C25.2913 34.4089 22.6182 37.1133 22.4537 40.5251C22.4537 40.6083 22.4537 40.7331 22.4537 40.8164C22.4537 42.6471 23.1528 44.2697 24.3454 45.4763C24.6744 45.8092 25.2913 46.2669 25.6614 46.5165C25.867 46.6829 26.0726 46.891 26.1549 47.1406C26.196 47.2654 26.2371 47.3902 26.2371 47.5567C26.2371 48.7217 25.4969 49.7202 24.1398 49.7202C24.0164 49.6786 23.9342 49.637 23.893 49.637Z" fill="#64C6C2"/>
<path d="M8.2247 23.924C8.2247 23.924 8.38919 23.2583 8.47144 22.9254C8.96493 21.1363 9.70516 19.472 10.6099 17.9326C11.1034 17.1004 10.9389 16.0603 10.2809 15.3945L7.64896 12.7733C6.70311 11.858 5.18152 12.0244 4.48241 13.1478C1.5626 17.6829 -0.0823632 23.1334 -0.0412392 28.9584C-0.000115115 34.7418 1.7271 40.1507 4.68803 44.6442C5.42826 45.726 6.94985 45.8924 7.85458 44.977L10.4454 42.3142C11.1034 41.6485 11.2268 40.6083 10.7333 39.7762C9.86966 38.3616 9.17055 36.8221 8.63594 35.1994C8.51256 34.7834 8.38919 34.4089 8.30694 33.9928C8.26582 33.7848 8.26582 33.5352 8.30694 33.3271C8.55369 32.4534 9.33505 31.8293 10.2809 31.8293C10.4043 31.8293 10.6099 31.8709 10.7744 31.9125C11.1034 31.9957 11.3912 32.2037 11.5557 32.495C11.7614 32.8278 12.0904 33.2439 12.296 33.4519C13.4886 34.7001 15.1335 35.4491 16.9841 35.4075C17.0252 35.4075 17.1075 35.4075 17.1486 35.4075C20.603 35.2826 23.3583 32.4534 23.4406 28.9584C23.4406 28.9168 23.4406 28.8336 23.4406 28.792C23.4406 28.7088 23.4406 28.5839 23.4406 28.5007C23.2761 25.089 20.5619 22.3845 17.1897 22.3013C17.1075 22.3013 16.9841 22.3013 16.9019 22.3013C15.0924 22.3013 13.4886 23.0502 12.296 24.2568C11.967 24.5897 11.5557 25.2138 11.309 25.5882C11.1445 25.7963 10.9389 26.0043 10.7333 26.0875C10.6099 26.1291 10.4865 26.1707 10.322 26.1707C9.17055 26.1707 8.14245 25.4634 8.18357 24.0488C8.18357 24.0488 8.2247 23.9656 8.2247 23.924Z" fill="#2B2D7E"/>
</g>
<defs>
<clipPath id="clip0_103_26">
<rect width="180" height="58" fill="white"/>
</clipPath>
</defs>
</svg>
