<svg width="24" height="25" viewBox="0 0 24 25" fill="none" xmlns="http://www.w3.org/2000/svg">
<path d="M7.37999 21.5655C7.86999 22.0555 8.65999 22.0555 9.14999 21.5655L17.46 13.2555C17.5527 13.163 17.6262 13.0531 17.6764 12.9321C17.7266 12.8111 17.7524 12.6814 17.7524 12.5505C17.7524 12.4195 17.7266 12.2898 17.6764 12.1688C17.6262 12.0479 17.5527 11.938 17.46 11.8455L9.14999 3.53547C8.65999 3.04547 7.86999 3.04547 7.37999 3.53547C6.88999 4.02547 6.88999 4.81547 7.37999 5.30547L14.62 12.5555L7.36999 19.8055C6.88999 20.2855 6.88999 21.0855 7.37999 21.5655Z" fill="#1A2B56"/>
</svg>
