<svg width="24" height="25" viewBox="0 0 24 25" fill="none" xmlns="http://www.w3.org/2000/svg">
<path d="M16.62 21.5655C16.13 22.0555 15.34 22.0555 14.85 21.5655L6.54 13.2555C6.4473 13.163 6.37375 13.0531 6.32357 12.9321C6.27339 12.8111 6.24755 12.6814 6.24755 12.5505C6.24755 12.4195 6.27339 12.2898 6.32357 12.1688C6.37375 12.0479 6.4473 11.938 6.54 11.8455L14.85 3.53547C15.34 3.04547 16.13 3.04547 16.62 3.53547C17.11 4.02547 17.11 4.81547 16.62 5.30547L9.38 12.5555L16.63 19.8055C17.11 20.2855 17.11 21.0855 16.62 21.5655Z" fill="#1A2B56"/>
</svg>
