<svg width="32" height="27" viewBox="0 0 32 27" fill="none" xmlns="http://www.w3.org/2000/svg">
<path d="M2.272 26.376C1.248 21.8533 0.736 17.928 0.736 14.6C0.736 9.82133 1.84533 6.23733 4.064 3.84799C6.28267 1.37333 9.52533 0.135994 13.792 0.135994V5.256C11.5733 5.256 9.952 5.85333 8.928 7.048C7.98933 8.24266 7.52 10.0347 7.52 12.424V15.368H13.92V26.376H2.272ZM19.552 26.376C18.528 21.8533 18.016 17.928 18.016 14.6C18.016 9.82133 19.1253 6.23733 21.344 3.84799C23.5627 1.37333 26.8053 0.135994 31.072 0.135994V5.256C28.8533 5.256 27.232 5.85333 26.208 7.048C25.2693 8.24266 24.8 10.0347 24.8 12.424V15.368H31.2V26.376H19.552Z" fill="#64C6C2"/>
</svg>
